<svg width="207" height="35" viewBox="0 0 207 35" fill="none" xmlns="http://www.w3.org/2000/svg">
<g clip-path="url(#clip0)">
<path d="M55.1271 10.0484V24.9534C55.1267 25.1552 55.064 25.352 54.9478 25.5164C54.8317 25.6807 54.6677 25.8046 54.4787 25.8709C54.2897 25.9371 54.0849 25.9425 53.8928 25.8862C53.7006 25.8299 53.5305 25.7147 53.4061 25.5566L43.4583 12.8523V24.9534C43.4583 25.2116 43.3566 25.4593 43.1755 25.6419C42.9945 25.8246 42.749 25.9272 42.493 25.9272C42.2371 25.9272 41.9915 25.8246 41.8105 25.6419C41.6295 25.4593 41.5278 25.2116 41.5278 24.9534V10.0484C41.5277 9.84603 41.5901 9.64865 41.7063 9.4837C41.8226 9.31876 41.9868 9.19443 42.1763 9.12802C42.3658 9.06161 42.571 9.0564 42.7636 9.11313C42.9561 9.16985 43.1264 9.28569 43.2507 9.44454L53.1967 22.1495V10.0484C53.1967 9.79013 53.2984 9.54244 53.4794 9.35981C53.6604 9.17719 53.9059 9.07459 54.1619 9.07459C54.4179 9.07459 54.6634 9.17719 54.8444 9.35981C55.0254 9.54244 55.1271 9.79013 55.1271 10.0484V10.0484ZM74.9305 17.5006C74.9305 22.3255 71.2424 26.2506 66.7097 26.2506C62.177 26.2506 58.4888 22.3255 58.4888 17.5006C58.4888 12.6757 62.177 8.75058 66.7097 8.75058C71.2424 8.75058 74.9305 12.6763 74.9305 17.5006V17.5006ZM73.0001 17.5006C73.0001 13.7497 70.1784 10.6982 66.7091 10.6982C63.2398 10.6982 60.4181 13.7497 60.4181 17.5006C60.4181 21.2514 63.2398 24.303 66.7091 24.303C70.1784 24.303 73.0001 21.2514 73.0001 17.5006V17.5006ZM140.986 17.5006C140.986 22.3255 137.297 26.2506 132.765 26.2506C128.233 26.2506 124.544 22.3255 124.544 17.5006C124.544 12.6757 128.232 8.75058 132.765 8.75058C137.298 8.75058 140.986 12.6763 140.986 17.5006ZM139.056 17.5006C139.056 13.7497 136.233 10.6982 132.764 10.6982C129.295 10.6982 126.473 13.7497 126.473 17.5006C126.473 21.2514 129.295 24.303 132.764 24.303C136.233 24.303 139.056 21.2514 139.056 17.5006ZM156.788 9.07459C156.532 9.07459 156.286 9.17719 156.105 9.35981C155.924 9.54244 155.823 9.79013 155.823 10.0484V19.154C155.847 19.8215 155.737 20.4869 155.501 21.1107C155.264 21.7344 154.905 22.3037 154.446 22.7844C153.986 23.2652 153.435 23.6476 152.826 23.9087C152.217 24.1699 151.562 24.3045 150.9 24.3045C150.238 24.3045 149.583 24.1699 148.973 23.9087C148.364 23.6476 147.813 23.2652 147.354 22.7844C146.894 22.3037 146.536 21.7344 146.299 21.1107C146.063 20.4869 145.953 19.8215 145.977 19.154V10.0484C145.977 9.79013 145.875 9.54244 145.694 9.35981C145.513 9.17719 145.268 9.07459 145.012 9.07459C144.756 9.07459 144.51 9.17719 144.329 9.35981C144.148 9.54244 144.047 9.79013 144.047 10.0484V19.154C144.024 20.0763 144.185 20.9938 144.519 21.8525C144.853 22.7112 145.355 23.4938 145.993 24.1541C146.632 24.8144 147.395 25.3392 148.238 25.6975C149.08 26.0558 149.985 26.2403 150.9 26.2403C151.814 26.2403 152.719 26.0558 153.562 25.6975C154.405 25.3392 155.168 24.8144 155.806 24.1541C156.445 23.4938 156.946 22.7112 157.281 21.8525C157.615 20.9938 157.775 20.0763 157.753 19.154V10.0484C157.753 9.79013 157.651 9.54244 157.47 9.35981C157.289 9.17719 157.044 9.07459 156.788 9.07459ZM121.953 20.2239C121.697 19.4846 121.249 18.8281 120.656 18.3234C120.115 17.8634 119.51 17.4879 118.859 17.2094C118.243 16.9384 117.606 16.722 116.953 16.5626C116.607 16.4677 116.357 16.4271 116.017 16.349C115.731 16.2893 115.447 16.2296 115.171 16.155C114.637 16.0235 114.117 15.8437 113.615 15.618C113.185 15.4299 112.795 15.1579 112.469 14.8178C112.339 14.6696 112.232 14.502 112.153 14.3208C112.077 14.1511 112.026 13.9715 112 13.7873C111.929 13.3872 111.965 12.9752 112.104 12.5938C112.244 12.2124 112.482 11.8754 112.793 11.6177C113.431 11.1201 114.198 10.8185 115.001 10.7489C115.729 10.6578 116.468 10.6879 117.186 10.8378C117.743 10.9592 118.285 11.1454 118.799 11.3928C119.138 11.5543 119.467 11.7358 119.784 11.9364C119.887 11.996 119.988 12.0694 120.048 12.1088L120.142 12.1721L120.151 12.178C120.339 12.3125 120.572 12.3661 120.8 12.3269C121.027 12.2878 121.23 12.1591 121.363 11.9692C121.496 11.7793 121.549 11.5437 121.511 11.3143C121.472 11.0849 121.344 10.8805 121.156 10.7459L120.791 10.4685C120.422 10.1939 120.034 9.9478 119.628 9.73215C118.989 9.38699 118.308 9.128 117.602 8.96181C116.679 8.74677 115.726 8.69608 114.786 8.81204C113.6 8.922 112.473 9.38142 111.544 10.1331C111.004 10.5903 110.586 11.1757 110.327 11.8367C110.259 12.0062 110.215 12.1852 110.162 12.3618C110.126 12.5408 110.094 12.7228 110.069 12.9048L110.053 13.1775L110.046 13.3147L110.042 13.3834L110.046 13.4902L110.057 13.7062C110.059 13.7905 110.067 13.8746 110.079 13.958C110.169 14.755 110.499 15.505 111.025 16.1061C111.526 16.6464 112.129 17.0791 112.8 17.3783C113.409 17.6562 114.043 17.8773 114.692 18.0388C115.009 18.1223 115.324 18.1898 115.639 18.256C115.897 18.3157 116.254 18.3813 116.5 18.4529C117.549 18.6761 118.535 19.1325 119.387 19.7889C119.727 20.0508 119.981 20.4102 120.115 20.82C120.249 21.2298 120.258 21.6709 120.139 22.0856C120.092 22.2649 120.023 22.4374 119.932 22.5988C119.888 22.6881 119.834 22.7721 119.771 22.8494C119.714 22.932 119.65 23.0093 119.579 23.0803C119.284 23.3832 118.934 23.6263 118.548 23.7964C117.758 24.1372 116.906 24.3087 116.046 24.3C115.849 24.303 115.651 24.2948 115.455 24.2755C115.294 24.2636 115.112 24.2331 114.931 24.2009C114.587 24.1339 114.25 24.0401 113.921 23.9205C113.366 23.7259 112.831 23.4775 112.324 23.1788C111.993 22.9898 111.672 22.7823 111.364 22.557C111.153 22.4025 111.051 22.3153 111.051 22.3153C110.88 22.1655 110.657 22.0893 110.43 22.1032C110.204 22.1171 109.992 22.2199 109.839 22.3897C109.687 22.5594 109.607 22.7826 109.616 23.0114C109.624 23.2401 109.722 23.4564 109.886 23.6138L109.909 23.6364C109.909 23.6364 110.036 23.7558 110.28 23.9593C110.63 24.2495 110.996 24.518 111.378 24.763C111.976 25.1439 112.61 25.4638 113.27 25.7177C113.688 25.8757 114.117 26.0015 114.553 26.0942C114.802 26.1471 115.054 26.187 115.307 26.2136C115.558 26.2412 115.811 26.2539 116.064 26.2518C117.195 26.2592 118.315 26.0277 119.353 25.5721C120.008 25.2999 120.592 24.8772 121.058 24.3377C121.523 23.7982 121.857 23.1566 122.034 22.4639L122.069 22.3142L122.085 22.2056L122.116 21.989L122.124 21.9347L122.134 21.8457V21.8105L122.138 21.6691L122.144 21.3851C122.144 21.1947 122.113 20.9984 122.093 20.8051C122.054 20.6088 122.012 20.4131 121.953 20.2239ZM92.011 17.5006C92.011 22.856 88.5807 25.9272 82.6073 25.9272H79.1823C78.9263 25.9272 78.6808 25.8246 78.4998 25.6419C78.3188 25.4593 78.2171 25.2116 78.2171 24.9534V10.0484C78.2171 9.79013 78.3188 9.54244 78.4998 9.35981C78.6808 9.17719 78.9263 9.07459 79.1823 9.07459H82.6073C89.1023 9.07459 92.011 13.3064 92.011 17.5006V17.5006ZM90.0806 17.5006C90.0806 13.5653 87.1465 11.0222 82.6061 11.0222H80.1463V23.9795H82.6061C88.7842 23.9795 90.0806 20.456 90.0806 17.5006V17.5006ZM106.148 11.0222C106.404 11.0222 106.65 10.9196 106.831 10.737C107.012 10.5544 107.114 10.3067 107.114 10.0484C107.114 9.79013 107.012 9.54244 106.831 9.35981C106.65 9.17719 106.404 9.07459 106.148 9.07459H96.2847C96.1579 9.07459 96.0324 9.09978 95.9153 9.14871C95.7982 9.19765 95.6918 9.26938 95.6021 9.35981C95.5125 9.45024 95.4414 9.55759 95.3929 9.67574C95.3444 9.79389 95.3194 9.92052 95.3194 10.0484V24.9534C95.3194 25.2116 95.4211 25.4593 95.6021 25.6419C95.7832 25.8246 96.0287 25.9272 96.2847 25.9272H106.151C106.407 25.9272 106.652 25.8246 106.833 25.6419C107.014 25.4593 107.116 25.2116 107.116 24.9534C107.116 24.6951 107.014 24.4474 106.833 24.2648C106.652 24.0821 106.407 23.9795 106.151 23.9795H97.2499V18.438H103.5C103.756 18.438 104.002 18.3354 104.183 18.1528C104.364 17.9701 104.465 17.7225 104.465 17.4642C104.465 17.2059 104.364 16.9582 104.183 16.7756C104.002 16.593 103.756 16.4904 103.5 16.4904H97.2475V11.0222H106.148ZM206.035 11.0222C206.291 11.0222 206.536 10.9196 206.717 10.737C206.898 10.5544 207 10.3067 207 10.0484C207 9.79013 206.898 9.54244 206.717 9.35981C206.536 9.17719 206.291 9.07459 206.035 9.07459H196.168C196.041 9.07459 195.916 9.09978 195.799 9.14871C195.682 9.19765 195.575 9.26938 195.486 9.35981C195.396 9.45024 195.325 9.55759 195.276 9.67574C195.228 9.79389 195.203 9.92052 195.203 10.0484V24.9534C195.203 25.2116 195.305 25.4593 195.486 25.6419C195.667 25.8246 195.912 25.9272 196.168 25.9272H206.035C206.291 25.9272 206.536 25.8246 206.717 25.6419C206.898 25.4593 207 25.2116 207 24.9534C207 24.6951 206.898 24.4474 206.717 24.2648C206.536 24.0821 206.291 23.9795 206.035 23.9795H197.133V18.438H203.388C203.644 18.438 203.889 18.3354 204.07 18.1528C204.251 17.9701 204.353 17.7225 204.353 17.4642C204.353 17.2059 204.251 16.9582 204.07 16.7756C203.889 16.593 203.644 16.4904 203.388 16.4904H197.133V11.0222H206.035ZM174.176 24.3919C174.249 24.4964 174.301 24.6143 174.329 24.7391C174.357 24.8639 174.36 24.9929 174.338 25.119C174.317 25.245 174.271 25.3655 174.203 25.4736C174.135 25.5817 174.047 25.6753 173.944 25.7491C173.84 25.8228 173.723 25.8752 173.599 25.9034C173.476 25.9315 173.348 25.9348 173.223 25.913C173.098 25.8913 172.979 25.8449 172.871 25.7766C172.764 25.7083 172.672 25.6193 172.598 25.5149L167.643 18.4314H163.359V24.9534C163.359 25.2116 163.257 25.4593 163.076 25.6419C162.895 25.8246 162.649 25.9272 162.393 25.9272C162.137 25.9272 161.892 25.8246 161.711 25.6419C161.53 25.4593 161.428 25.2116 161.428 24.9534V10.0484C161.428 9.79013 161.53 9.54244 161.711 9.35981C161.892 9.17719 162.137 9.07459 162.393 9.07459H169.244C172.161 9.07459 174.278 11.0437 174.278 13.7527C174.278 16.2314 172.504 18.0836 169.974 18.3837L174.176 24.3919ZM169.243 16.4838C171.071 16.4838 172.347 15.3608 172.347 13.7527C172.347 12.1446 171.071 11.0222 169.243 11.0222H163.359V16.4838H169.243ZM178.749 16.7117C178.794 16.4832 178.808 16.2636 178.867 16.0267C178.974 15.5476 179.133 15.0816 179.34 14.637C179.743 13.7688 180.321 12.995 181.037 12.3654C181.706 11.7765 182.485 11.3284 183.328 11.0473C184.087 10.8018 184.881 10.6852 185.678 10.7024C186.873 10.7368 188.038 11.0795 189.064 11.6977C189.353 11.8701 189.629 12.0627 189.892 12.2741L190.166 12.5074L190.21 12.545C190.383 12.6886 190.605 12.7591 190.828 12.7416C191.052 12.7242 191.26 12.6202 191.409 12.4514C191.558 12.2827 191.637 12.0622 191.629 11.8362C191.621 11.6102 191.526 11.3961 191.365 11.2388L191.039 10.9267C190.723 10.6399 190.387 10.3765 190.034 10.1385C188.749 9.28839 187.258 8.81131 185.722 8.75953C184.703 8.73251 183.686 8.88103 182.717 9.1987C181.632 9.56081 180.63 10.1373 179.768 10.8945C178.847 11.7036 178.104 12.6984 177.587 13.8148C177.321 14.3876 177.118 14.9878 176.982 15.6049C176.908 15.9157 176.872 16.2612 176.822 16.5912C176.803 16.7517 176.805 16.8794 176.795 17.025L176.772 17.4988C176.776 19.3365 177.352 21.1266 178.419 22.6163C179.485 24.106 180.989 25.2201 182.717 25.8013C183.228 25.9707 183.755 26.0906 184.289 26.1593C184.526 26.1977 184.765 26.2196 185.005 26.2249L185.331 26.2416L185.462 26.2458L185.552 26.2428L185.729 26.2375C187.262 26.186 188.752 25.7086 190.033 24.8579C190.391 24.6167 190.731 24.3495 191.051 24.0583L191.347 23.7713C191.509 23.6136 191.604 23.3983 191.613 23.171C191.621 22.9437 191.541 22.7222 191.39 22.5532C191.239 22.3842 191.029 22.2809 190.804 22.2653C190.579 22.2496 190.357 22.3228 190.185 22.4693L190.177 22.4759L189.875 22.7342C189.615 22.9408 189.342 23.1296 189.058 23.2993C188.031 23.9203 186.862 24.2631 185.665 24.2946H185.526H185.46H185.426L185.101 24.2779C184.895 24.2753 184.689 24.2553 184.486 24.2182C184.091 24.1622 183.701 24.071 183.322 23.9455C182.479 23.6642 181.7 23.2158 181.031 22.6268C180.302 21.988 179.717 21.1993 179.315 20.3137C178.913 19.428 178.703 18.4658 178.7 17.4916L178.72 17.1163C178.733 16.9886 178.733 16.8323 178.75 16.7117H178.749Z" fill="#D1D2D2"/>
<path d="M29.1817 7.29779L17.5223 0.518095C16.9313 0.174488 16.2612 -0.00637817 15.5791 -0.00637817C14.897 -0.00637817 14.2269 0.174488 13.636 0.518095L1.95467 7.32405C1.36391 7.66809 0.873245 8.16286 0.531919 8.7587C0.190592 9.35454 0.0106159 10.0305 0.010055 10.7187L6.71984e-07 24.2966C-0.0004011 24.9861 0.179365 25.6636 0.521182 26.2607C0.862999 26.8578 1.35479 27.3535 1.94698 27.6978L13.607 34.4786C14.1978 34.8227 14.868 35.0038 15.5501 35.0038C16.2323 35.0038 16.9024 34.8227 17.4933 34.4786L29.1746 27.6763C29.7654 27.3322 30.2561 26.8373 30.5973 26.2413C30.9385 25.6454 31.1183 24.9693 31.1186 24.2811L31.1287 10.7032C31.1296 10.0129 30.9501 9.33466 30.6083 8.73678C30.2664 8.13889 29.7744 7.64254 29.1817 7.29779ZM14.3013 1.68226C14.489 1.57314 14.6898 1.48872 14.8987 1.43105V7.22559C14.8987 7.40363 14.9688 7.57437 15.0936 7.70027C15.2183 7.82616 15.3876 7.89688 15.564 7.89688C15.7405 7.89688 15.9097 7.82616 16.0345 7.70027C16.1593 7.57437 16.2294 7.40363 16.2294 7.22559V1.42209C16.4486 1.48003 16.6592 1.56712 16.8557 1.68106L28.5169 8.46136C28.7103 8.57366 28.8881 8.7113 29.0456 8.87069L21.9769 12.9879C21.2579 11.9431 20.2987 11.0895 19.1814 10.5001C18.0642 9.91075 16.8221 9.60315 15.5613 9.60362C14.3006 9.60409 13.0587 9.91261 11.9419 10.5028C10.825 11.093 9.8665 11.9473 9.14822 12.9927L2.09602 8.89277C2.25243 8.7349 2.42858 8.5983 2.62003 8.48642L14.3013 1.68226ZM22.0603 17.4984C22.0583 19.1196 21.4615 20.6827 20.3847 21.8861C19.308 23.0896 17.8277 23.8481 16.2294 24.0155V17.8862L21.486 14.824C21.8632 15.6643 22.059 16.5759 22.0603 17.4984V17.4984ZM9.64029 14.8287L14.8987 17.8862V24.0155C13.8768 23.9111 12.8942 23.5632 12.0318 23.0004C11.1693 22.4377 10.4518 21.6763 9.93824 20.7788C9.4247 19.8814 9.12989 18.8738 9.07809 17.8388C9.02628 16.8039 9.21898 15.7714 9.64029 14.8264V14.8287ZM15.564 16.7239L10.3074 13.6676C10.9064 12.8259 11.6953 12.1402 12.6089 11.667C13.5226 11.1938 14.5347 10.9468 15.5616 10.9464C16.5886 10.9459 17.6009 11.192 18.515 11.6643C19.429 12.1367 20.2186 12.8217 20.8183 13.6628L15.564 16.7239ZM2.61116 26.5354C2.41806 26.4229 2.24048 26.2853 2.08301 26.126L6.63701 23.4749C6.71638 23.4328 6.78649 23.3748 6.8431 23.3046C6.89972 23.2344 6.94169 23.1534 6.96648 23.0664C6.99127 22.9795 6.99837 22.8883 6.98736 22.7985C6.97635 22.7087 6.94745 22.6221 6.9024 22.5438C6.85735 22.4655 6.79708 22.3973 6.72522 22.3431C6.65335 22.289 6.57137 22.25 6.48421 22.2286C6.39705 22.2073 6.3065 22.2039 6.21801 22.2187C6.12952 22.2335 6.04492 22.2663 5.96929 22.3149L1.41943 24.9637C1.36182 24.7463 1.3326 24.5222 1.33249 24.2972L1.34254 10.7199C1.34279 10.495 1.37242 10.2711 1.43067 10.0539L8.48759 14.1575C7.95003 15.3072 7.69652 16.5712 7.74874 17.8413C7.80097 19.1114 8.15738 20.3499 8.78749 21.4507C9.41759 22.5515 10.3026 23.482 11.3669 24.1625C12.4312 24.843 13.643 25.2532 14.8987 25.3581V33.395C14.9022 33.459 14.9149 33.5221 14.9365 33.5824C14.7035 33.5253 14.4795 33.4356 14.2712 33.3157L2.61116 26.5354ZM16.8279 33.3145C16.6289 33.4299 16.4155 33.5178 16.1933 33.5758C16.2136 33.5182 16.2257 33.4579 16.2294 33.3968V25.3581C17.4859 25.2535 18.6985 24.8431 19.7635 24.1622C20.8284 23.4814 21.7139 22.5502 22.3441 21.4485C22.9744 20.3468 23.3305 19.1074 23.3821 17.8365C23.4338 16.5655 23.1793 15.3009 22.6405 14.1509L29.711 10.0337C29.7686 10.2511 29.7978 10.4751 29.7979 10.7002L29.7879 24.2781C29.7876 24.5071 29.7569 24.7351 29.6968 24.9559L25.1594 22.3149C25.0065 22.2259 24.8249 22.2018 24.6544 22.2479C24.4839 22.294 24.3386 22.4065 24.2503 22.5608C24.1621 22.715 24.1382 22.8983 24.1839 23.0702C24.2296 23.2422 24.3412 23.3889 24.494 23.4779L29.0232 26.1159C28.8695 26.2701 28.6967 26.4036 28.5092 26.5133L16.8279 33.3145Z" fill="#89A19D"/>
</g>
<defs>
<clipPath id="clip0">
<rect width="207" height="35" fill="white"/>
</clipPath>
</defs>
</svg>
